<svg width="25" height="25" viewBox="0 0 25 25" fill="none" xmlns="http://www.w3.org/2000/svg">
<path d="M23.5 11.625C23.5043 13.2749 23.1189 14.9024 22.375 16.375C21.4931 18.1397 20.1372 19.624 18.4593 20.6616C16.7815 21.6993 14.8478 22.2493 12.875 22.25C11.2252 22.2543 9.59767 21.8689 8.12503 21.125L1.00003 23.5L3.37503 16.375C2.63119 14.9024 2.24573 13.2749 2.25003 11.625C2.25079 9.65223 2.8008 7.7186 3.83843 6.04072C4.87606 4.36285 6.36035 3.00699 8.12503 2.12504C9.59767 1.3812 11.2252 0.995734 12.875 1.00004H13.5C16.1055 1.14378 18.5663 2.24349 20.4115 4.08861C22.2566 5.93373 23.3563 8.3946 23.5 11V11.625Z" stroke="#1E1E1E" stroke-width="2" stroke-linecap="round" stroke-linejoin="round"/>
</svg>
