<svg width="30" height="25" viewBox="0 0 30 25" fill="none" xmlns="http://www.w3.org/2000/svg">
<path d="M21 23.5V21C21 19.6739 20.4732 18.4021 19.5355 17.4645C18.5979 16.5268 17.3261 16 16 16H6C4.67392 16 3.40215 16.5268 2.46447 17.4645C1.52678 18.4021 1 19.6739 1 21V23.5M28.5 23.5V21C28.4992 19.8922 28.1304 18.816 27.4517 17.9404C26.773 17.0648 25.8227 16.4395 24.75 16.1625M19.75 1.1625C20.8255 1.43788 21.7788 2.06338 22.4595 2.94039C23.1403 3.8174 23.5098 4.89604 23.5098 6.00625C23.5098 7.11646 23.1403 8.1951 22.4595 9.07211C21.7788 9.94912 20.8255 10.5746 19.75 10.85M16 6C16 8.76142 13.7614 11 11 11C8.23858 11 6 8.76142 6 6C6 3.23858 8.23858 1 11 1C13.7614 1 16 3.23858 16 6Z" stroke="#1E1E1E" stroke-width="2" stroke-linecap="round" stroke-linejoin="round"/>
</svg>
