<svg width="16" height="14" viewBox="0 0 16 14" fill="none" xmlns="http://www.w3.org/2000/svg">
<path d="M13.6609 1.8746C13.3204 1.53394 12.9161 1.2637 12.4711 1.07932C12.0262 0.894947 11.5492 0.800049 11.0676 0.800049C10.5859 0.800049 10.109 0.894947 9.66401 1.07932C9.21903 1.2637 8.81475 1.53394 8.47424 1.8746L7.76758 2.58127L7.06091 1.8746C6.37311 1.1868 5.44026 0.800405 4.46758 0.800405C3.49489 0.800405 2.56204 1.1868 1.87424 1.8746C1.18645 2.56239 0.800049 3.49524 0.800049 4.46793C0.800049 5.44062 1.18645 6.37347 1.87424 7.06127L7.76758 12.9546L13.6609 7.06127C14.0016 6.72076 14.2718 6.31648 14.4562 5.8715C14.6406 5.42653 14.7355 4.94959 14.7355 4.46793C14.7355 3.98627 14.6406 3.50934 14.4562 3.06436C14.2718 2.61939 14.0016 2.2151 13.6609 1.8746Z" stroke="#1E1E1E" stroke-width="1.6" stroke-linecap="round" stroke-linejoin="round"/>
</svg>
