<svg width="30" height="30" viewBox="0 0 30 30" fill="none" xmlns="http://www.w3.org/2000/svg">
<path d="M14.75 18.5C16.8211 18.5 18.5 16.8211 18.5 14.75C18.5 12.6789 16.8211 11 14.75 11C12.6789 11 11 12.6789 11 14.75C11 16.8211 12.6789 18.5 14.75 18.5Z" stroke="#1E1E1E" stroke-width="2" stroke-linecap="round" stroke-linejoin="round"/>
<path d="M24 18.5C23.8336 18.877 23.784 19.2952 23.8575 19.7007C23.931 20.1062 24.1243 20.4804 24.4125 20.775L24.4875 20.85C24.7199 21.0822 24.9043 21.3579 25.0302 21.6614C25.156 21.9649 25.2207 22.2902 25.2207 22.6188C25.2207 22.9473 25.156 23.2726 25.0302 23.5761C24.9043 23.8796 24.7199 24.1553 24.4875 24.3875C24.2553 24.6199 23.9796 24.8043 23.6761 24.9302C23.3726 25.056 23.0473 25.1207 22.7188 25.1207C22.3902 25.1207 22.0649 25.056 21.7614 24.9302C21.4579 24.8043 21.1822 24.6199 20.95 24.3875L20.875 24.3125C20.5804 24.0243 20.2062 23.831 19.8007 23.7575C19.3952 23.684 18.977 23.7336 18.6 23.9C18.2303 24.0585 17.915 24.3216 17.6929 24.6569C17.4708 24.9923 17.3516 25.3853 17.35 25.7875V26C17.35 26.663 17.0866 27.2989 16.6178 27.7678C16.1489 28.2366 15.513 28.5 14.85 28.5C14.187 28.5 13.5511 28.2366 13.0822 27.7678C12.6134 27.2989 12.35 26.663 12.35 26V25.8875C12.3403 25.4738 12.2064 25.0725 11.9656 24.7359C11.7249 24.3993 11.3884 24.1429 11 24C10.623 23.8336 10.2048 23.784 9.79926 23.8575C9.39377 23.931 9.0196 24.1243 8.725 24.4125L8.65 24.4875C8.41782 24.7199 8.1421 24.9043 7.8386 25.0302C7.53511 25.156 7.20979 25.2207 6.88125 25.2207C6.55271 25.2207 6.22739 25.156 5.9239 25.0302C5.6204 24.9043 5.34468 24.7199 5.1125 24.4875C4.88006 24.2553 4.69566 23.9796 4.56985 23.6761C4.44404 23.3726 4.37928 23.0473 4.37928 22.7188C4.37928 22.3902 4.44404 22.0649 4.56985 21.7614C4.69566 21.4579 4.88006 21.1822 5.1125 20.95L5.1875 20.875C5.47567 20.5804 5.66898 20.2062 5.74251 19.8007C5.81603 19.3952 5.76639 18.977 5.6 18.6C5.44155 18.2303 5.17844 17.915 4.84308 17.6929C4.50772 17.4708 4.11473 17.3516 3.7125 17.35H3.5C2.83696 17.35 2.20107 17.0866 1.73223 16.6178C1.26339 16.1489 1 15.513 1 14.85C1 14.187 1.26339 13.5511 1.73223 13.0822C2.20107 12.6134 2.83696 12.35 3.5 12.35H3.6125C4.02624 12.3403 4.42751 12.2064 4.76412 11.9656C5.10074 11.7249 5.35714 11.3884 5.5 11C5.66639 10.623 5.71603 10.2048 5.64251 9.79926C5.56898 9.39377 5.37567 9.0196 5.0875 8.725L5.0125 8.65C4.78006 8.41782 4.59566 8.1421 4.46985 7.8386C4.34404 7.53511 4.27928 7.20979 4.27928 6.88125C4.27928 6.55271 4.34404 6.22739 4.46985 5.9239C4.59566 5.6204 4.78006 5.34468 5.0125 5.1125C5.24468 4.88006 5.5204 4.69566 5.8239 4.56985C6.12739 4.44404 6.45271 4.37928 6.78125 4.37928C7.10979 4.37928 7.43511 4.44404 7.7386 4.56985C8.0421 4.69566 8.31782 4.88006 8.55 5.1125L8.625 5.1875C8.9196 5.47567 9.29377 5.66898 9.69926 5.74251C10.1048 5.81603 10.523 5.76639 10.9 5.6H11C11.3697 5.44155 11.685 5.17844 11.9071 4.84308C12.1292 4.50772 12.2484 4.11473 12.25 3.7125V3.5C12.25 2.83696 12.5134 2.20107 12.9822 1.73223C13.4511 1.26339 14.087 1 14.75 1C15.413 1 16.0489 1.26339 16.5178 1.73223C16.9866 2.20107 17.25 2.83696 17.25 3.5V3.6125C17.2516 4.01473 17.3708 4.40772 17.5929 4.74308C17.815 5.07844 18.1303 5.34155 18.5 5.5C18.877 5.66639 19.2952 5.71603 19.7007 5.64251C20.1062 5.56898 20.4804 5.37567 20.775 5.0875L20.85 5.0125C21.0822 4.78006 21.3579 4.59566 21.6614 4.46985C21.9649 4.34404 22.2902 4.27928 22.6188 4.27928C22.9473 4.27928 23.2726 4.34404 23.5761 4.46985C23.8796 4.59566 24.1553 4.78006 24.3875 5.0125C24.6199 5.24468 24.8043 5.5204 24.9302 5.8239C25.056 6.12739 25.1207 6.45271 25.1207 6.78125C25.1207 7.10979 25.056 7.43511 24.9302 7.7386C24.8043 8.0421 24.6199 8.31782 24.3875 8.55L24.3125 8.625C24.0243 8.9196 23.831 9.29377 23.7575 9.69926C23.684 10.1048 23.7336 10.523 23.9 10.9V11C24.0585 11.3697 24.3216 11.685 24.6569 11.9071C24.9923 12.1292 25.3853 12.2484 25.7875 12.25H26C26.663 12.25 27.2989 12.5134 27.7678 12.9822C28.2366 13.4511 28.5 14.087 28.5 14.75C28.5 15.413 28.2366 16.0489 27.7678 16.5178C27.2989 16.9866 26.663 17.25 26 17.25H25.8875C25.4853 17.2516 25.0923 17.3708 24.7569 17.5929C24.4216 17.815 24.1585 18.1303 24 18.5Z" stroke="#1E1E1E" stroke-width="2" stroke-linecap="round" stroke-linejoin="round"/>
</svg>
