<svg width="20" height="16" viewBox="0 0 20 16" fill="none" xmlns="http://www.w3.org/2000/svg">
<path d="M15 6H13.95C13.6382 4.7925 12.994 3.69666 12.0905 2.837C11.1871 1.97734 10.0606 1.38833 8.83911 1.1369C7.61762 0.885467 6.35009 0.9817 5.18056 1.41466C4.01102 1.84762 2.98638 2.59995 2.22305 3.58615C1.45973 4.57236 0.988336 5.7529 0.862433 6.99363C0.736531 8.23436 0.96117 9.48553 1.51082 10.605C2.06048 11.7244 2.91311 12.6672 3.97183 13.3263C5.03055 13.9854 6.25291 14.3343 7.50001 14.3333H15C16.1051 14.3333 17.1649 13.8943 17.9463 13.1129C18.7277 12.3315 19.1667 11.2717 19.1667 10.1667C19.1667 9.0616 18.7277 8.00179 17.9463 7.22039C17.1649 6.43899 16.1051 6 15 6Z" stroke="#1E1E1E" stroke-width="2" stroke-linecap="round" stroke-linejoin="round"/>
</svg>
